# xmcd
#
# Track frame offsets: 
#        150
#        15812
#        34027
#        50635
#        67462
#        87680
#        107282
#        125452
#        138847
#        157397
#        173052
#
# Disc length: 2483 seconds
#
# Revision: 0
# Processed by: cddbd v1.5.1PL0 Copyright (c) Steve Scherf et al.
# Submitted via: ExactAudioCopy v0.95a4
#
DISCID=9409b10b
DTITLE=Jamie O'Neal - Brave
DYEAR=2005
DGENRE=Country
TTITLE0=Trying To Find Atlantis
TTITLE1=Naïve
TTITLE2=Somebody's Hero
TTITLE3=When Did You Know
TTITLE4=Devil On The Left
TTITLE5=On My Way To You
TTITLE6=Follow Me Home
TTITLE7=Girlfriends
TTITLE8=Ready When It Comes
TTITLE9=Brave
TTITLE10=I Love My Life
EXTD=
EXTT0=
EXTT1=
EXTT2=
EXTT3=
EXTT4=
EXTT5=
EXTT6=
EXTT7=
EXTT8=
EXTT9=
EXTT10=
PLAYORDER=
